<svg width="58" height="71" viewBox="0 0 58 71" fill="none" xmlns="http://www.w3.org/2000/svg">
<path d="M18.7548 38.8491H38.8491M18.7548 52.2454H28.802M2.00944 8.70757V62.2926C2.00944 64.069 2.71513 65.7727 3.97127 67.0289C5.22742 68.285 6.93111 68.9907 8.70757 68.9907H48.8963C50.6728 68.9907 52.3765 68.285 53.6326 67.0289C54.8888 65.7727 55.5945 64.069 55.5945 62.2926V23.2492C55.5944 22.3569 55.416 21.4736 55.0697 20.6511C54.7235 19.8287 54.2165 19.0838 53.5783 18.46L38.7085 3.9184C37.4571 2.69485 35.7766 2.00966 34.0265 2.00944H8.70757C6.93111 2.00944 5.22742 2.71513 3.97127 3.97127C2.71513 5.22742 2.00944 6.93111 2.00944 8.70757Z" stroke="black" stroke-width="2" stroke-linecap="round" stroke-linejoin="round"/>
</svg>
